<svg xmlns="http://www.w3.org/2000/svg" viewBox="0 0 24 24" fill="currentColor"><path d="M11.75 4.5c.83 0 1.5.67 1.5 1.5s-.67 1.5-1.5 1.5S10.25 6.83 10.25 6s.67-1.5 1.5-1.5zM8.5 8c.83 0 1.5.67 1.5 1.5S9.33 11 8.5 11 7 10.33 7 9.5 7.67 8 8.5 8zm5 0c.83 0 1.5.67 1.5 1.5s-.67 1.5-1.5 1.5-1.5-.67-1.5-1.5.67-1.5 1.5-1.5zm-8.47 3l.39.39-1.06 1.06c-.29.29-.29.77 0 1.06.15.15.34.22.53.22s.38-.07.53-.22l1.06-1.06.39.39c.29.29.77.29 1.06 0l1.06-1.06c.29-.29.29-.77 0-1.06l-1.06-1.06c-.29-.29-.77-.29-1.06 0l-.39.39-.39-.39c-.29-.29-.77-.29-1.06 0l-1.06 1.06c-.29.29-.29.77 0 1.06l1.06 1.06c.29.29.77.29 1.06 0zM18.62 6.5c.83 0 1.5.67 1.5 1.5s-.67 1.5-1.5 1.5-1.5-.67-1.5-1.5.67-1.5 1.5-1.5zm-3.15 6.5c.83 0 1.5.67 1.5 1.5s-.67 1.5-1.5 1.5-1.5-.67-1.5-1.5.67-1.5 1.5-1.5zm1.32-2.5c0 .83-.67 1.5-1.5 1.5s-1.5-.67-1.5-1.5.67-1.5 1.5-1.5 1.5.67 1.5 1.5zM20.5 12c.83 0 1.5.67 1.5 1.5s-.67 1.5-1.5 1.5-1.5-.67-1.5-1.5.67-1.5 1.5-1.5zM15.47 19.5c.83 0 1.5.67 1.5 1.5s-.67 1.5-1.5 1.5-1.5-.67-1.5-1.5.67-1.5 1.5-1.5zm-6 0c.83 0 1.5.67 1.5 1.5s-.67 1.5-1.5 1.5-1.5-.67-1.5-1.5.67-1.5 1.5-1.5z"/></svg>